<?xml version="1.0" encoding="UTF-8" standalone="no"?>
<svg
   xmlns:dc="http://purl.org/dc/elements/1.1/"
   xmlns:cc="http://creativecommons.org/ns#"
   xmlns:rdf="http://www.w3.org/1999/02/22-rdf-syntax-ns#"
   xmlns:svg="http://www.w3.org/2000/svg"
   xmlns="http://www.w3.org/2000/svg"
   xmlns:sodipodi="http://sodipodi.sourceforge.net/DTD/sodipodi-0.dtd"
   xmlns:inkscape="http://www.inkscape.org/namespaces/inkscape"
   width="1000"
   height="1000"
   viewBox="0 0 264.58333 264.58334"
   version="1.1"
   id="svg8"
   inkscape:version="1.0.2-2 (e86c870879, 2021-01-15)"
   sodipodi:docname="icon.svg">
  <defs
     id="defs2" />
  <sodipodi:namedview
     id="base"
     pagecolor="#ffffff"
     bordercolor="#666666"
     borderopacity="1.0"
     inkscape:pageopacity="0.0"
     inkscape:pageshadow="2"
     inkscape:zoom="0.35"
     inkscape:cx="400"
     inkscape:cy="560"
     inkscape:document-units="mm"
     inkscape:current-layer="layer1"
     inkscape:document-rotation="0"
     showgrid="false"
     units="px"
     inkscape:window-width="1366"
     inkscape:window-height="705"
     inkscape:window-x="-8"
     inkscape:window-y="-8"
     inkscape:window-maximized="1" />
  <metadata
     id="metadata5">
    <rdf:RDF>
      <cc:Work
         rdf:about="">
        <dc:format>image/svg+xml</dc:format>
        <dc:type
           rdf:resource="http://purl.org/dc/dcmitype/StillImage" />
        <dc:title />
      </cc:Work>
    </rdf:RDF>
  </metadata>
  <g
     inkscape:label="Layer 1"
     inkscape:groupmode="layer"
     id="layer1">
    <ellipse
       style="fill:#008200;stroke:none;stroke-width:3.32638;paint-order:markers stroke fill;fill-opacity:1;stroke-opacity:0"
       id="path871"
       cx="133.04762"
       cy="133.42558"
       rx="127.77526"
       ry="126.64133" />
    <g
       id="g869"
       transform="matrix(1.7386905,0,0,2.0663332,47.247031,30.488973)"
       style="fill:#dbffff;fill-opacity:1">
      <ellipse
         cx="50"
         cy="19.724001"
         rx="30"
         ry="11.262"
         id="ellipse849"
         style="fill:#dbffff;fill-opacity:1" />
      <path
         d="M 20,39.57 V 24.524 c 0,0 0.093,11.169 30,11.169 29.908,0 30,-11.169 30,-11.169 v 15.231 c 0,0 -0.186,11.906 -30.092,11.906 C 20,51.661 20,39.57 20,39.57 Z"
         id="path851"
         style="fill:#dbffff;fill-opacity:1" />
      <path
         d="M 20,59.784 V 44.739 c 0,0 0.093,11.168 30,11.168 29.908,0 30,-11.168 30,-11.168 v 15.23 c 0,0 -0.186,11.908 -30.092,11.908 C 20,71.877 20,59.784 20,59.784 Z"
         id="path853"
         style="fill:#dbffff;fill-opacity:1" />
      <path
         d="M 20,79.446 V 64.398 c 0,0 0.093,11.171 30,11.171 29.908,0 30,-11.171 30,-11.171 V 79.63 c 0,0 -0.186,11.906 -30.092,11.906 C 20,91.537 20,79.446 20,79.446 Z"
         id="path855"
         style="fill:#dbffff;fill-opacity:1" />
    </g>
  </g>
</svg>
